<svg width="27" height="27" viewBox="0 0 27 27" fill="none" xmlns="http://www.w3.org/2000/svg">
<path fill-rule="evenodd" clip-rule="evenodd" d="M1.54657 1.54657C0.375 2.71815 0.375 4.60376 0.375 8.375V18.625C0.375 22.3962 0.375 24.2819 1.54657 25.4534C2.71815 26.625 4.60376 26.625 8.375 26.625H18.625C22.3962 26.625 24.2819 26.625 25.4534 25.4534C26.625 24.2819 26.625 22.3962 26.625 18.625V8.375C26.625 4.60376 26.625 2.71815 25.4534 1.54657C24.2819 0.375 22.3962 0.375 18.625 0.375H8.375C4.60376 0.375 2.71815 0.375 1.54657 1.54657ZM12.5 6.20833V12.5H6.20833V14.5H12.5L12.5 20.7917H14.5V14.5H20.7917V12.5H14.5V6.20833H12.5Z" fill="#FFCC29"/>
</svg>
