<svg width="21" height="21" viewBox="0 0 21 21" fill="none" xmlns="http://www.w3.org/2000/svg">
<mask id="mask0_3337_13036" style="mask-type:alpha" maskUnits="userSpaceOnUse" x="0" y="0" width="21" height="21">
<rect x="0.55127" y="0.389282" width="20" height="20" fill="#D9D9D9"/>
</mask>
<g mask="url(#mask0_3337_13036)">
<path d="M10.5513 18.3893C9.45405 18.3893 8.41933 18.1809 7.4471 17.7643C6.47488 17.3476 5.62419 16.7747 4.89502 16.0455C4.16585 15.3164 3.59294 14.4657 3.17627 13.4934C2.7596 12.5212 2.55127 11.4865 2.55127 10.3893C2.55127 9.27817 2.7596 8.23998 3.17627 7.2747C3.59294 6.30942 4.16585 5.4622 4.89502 4.73303C5.62419 4.00387 6.47488 3.43095 7.4471 3.01428C8.41933 2.59762 9.45405 2.38928 10.5513 2.38928C11.6624 2.38928 12.7006 2.59762 13.6659 3.01428C14.6311 3.43095 15.4784 4.00387 16.2075 4.73303C16.9367 5.4622 17.5096 6.30942 17.9263 7.2747C18.3429 8.23998 18.5513 9.27817 18.5513 10.3893C18.5513 11.4865 18.3429 12.5212 17.9263 13.4934C17.5096 14.4657 16.9367 15.3164 16.2075 16.0455C15.4784 16.7747 14.6311 17.3476 13.6659 17.7643C12.7006 18.1809 11.6624 18.3893 10.5513 18.3893ZM10.5513 16.8893C11.3152 16.8893 12.0374 16.7643 12.7179 16.5143C13.3985 16.2643 14.0165 15.9171 14.5721 15.4726L5.46794 6.36845C5.02349 6.924 4.67627 7.54206 4.42627 8.22262C4.17627 8.90317 4.05127 9.62539 4.05127 10.3893C4.05127 12.1948 4.68321 13.7296 5.9471 14.9934C7.21099 16.2573 8.74571 16.8893 10.5513 16.8893ZM15.6346 14.4101C16.079 13.8546 16.4263 13.2365 16.6763 12.5559C16.9263 11.8754 17.0513 11.1532 17.0513 10.3893C17.0513 8.58373 16.4193 7.049 15.1554 5.78512C13.8915 4.52123 12.3568 3.88928 10.5513 3.88928C9.78738 3.88928 9.06516 4.01428 8.3846 4.26428C7.70405 4.51428 7.08599 4.8615 6.53044 5.30595L15.6346 14.4101Z" fill="#818181"/>
</g>
</svg>
