<svg width="15" height="18" viewBox="0 0 15 18" fill="none" xmlns="http://www.w3.org/2000/svg">
<mask id="mask0_2017_11245" style="mask-type:alpha" maskUnits="userSpaceOnUse" x="0" y="0" width="15" height="18">
<rect x="0.499023" y="17.7078" width="17.7078" height="14.3053" transform="rotate(-90 0.499023 17.7078)" fill="#D9D9D9"/>
</mask>
<g mask="url(#mask0_2017_11245)">
<path d="M8.42666 12.6718C8.42666 12.9366 8.35048 13.162 8.19812 13.348C8.04576 13.534 7.8626 13.627 7.64865 13.627C7.43469 13.627 7.25259 13.5327 7.10234 13.3441C6.95208 13.1555 6.87695 12.9288 6.87695 12.664C6.87695 12.3991 6.95313 12.1737 7.1055 11.9877C7.25786 11.8017 7.44101 11.7087 7.65497 11.7087C7.86892 11.7087 8.05102 11.803 8.20128 11.9916C8.35153 12.1802 8.42666 12.4069 8.42666 12.6718ZM8.42666 8.85781C8.42666 9.12265 8.35048 9.34807 8.19812 9.53406C8.04576 9.72005 7.8626 9.81305 7.64865 9.81305C7.43469 9.81305 7.25259 9.71875 7.10234 9.53015C6.95208 9.34155 6.87695 9.11483 6.87695 8.84999C6.87695 8.58514 6.95313 8.35973 7.1055 8.17373C7.25786 7.98774 7.44101 7.89474 7.65497 7.89474C7.86892 7.89474 8.05102 7.98904 8.20128 8.17764C8.35153 8.36624 8.42666 8.59297 8.42666 8.85781ZM8.42666 5.04384C8.42666 5.30869 8.35048 5.5341 8.19812 5.72008C8.04576 5.90607 7.8626 5.99907 7.64865 5.99907C7.43469 5.99907 7.25259 5.90477 7.10234 5.71617C6.95208 5.52757 6.87695 5.30085 6.87695 5.036C6.87695 4.77116 6.95313 4.54574 7.1055 4.35975C7.25786 4.17377 7.44101 4.08078 7.65497 4.08078C7.86892 4.08078 8.05102 4.17508 8.20128 4.36368C8.35153 4.55228 8.42666 4.779 8.42666 5.04384Z" fill="#818181"/>
</g>
</svg>
