<svg width="24" height="24" viewBox="0 0 24 24" fill="none" xmlns="http://www.w3.org/2000/svg">
<path d="M2.625 23.25C2.10938 23.25 1.66797 23.0664 1.30078 22.6992C0.933594 22.332 0.75 21.8906 0.75 21.375V2.625C0.75 2.10938 0.933594 1.66797 1.30078 1.30078C1.66797 0.933594 2.10938 0.75 2.625 0.75H14.4688C14.7344 0.75 14.957 0.840364 15.1367 1.02109C15.3164 1.20184 15.4063 1.4258 15.4063 1.69297C15.4063 1.96016 15.3164 2.18229 15.1367 2.35938C14.957 2.53646 14.7344 2.625 14.4688 2.625H2.625V21.375H21.375V9.5625C21.375 9.29688 21.4654 9.07422 21.6461 8.89453C21.8268 8.71484 22.0508 8.625 22.318 8.625C22.5852 8.625 22.8073 8.71484 22.9844 8.89453C23.1615 9.07422 23.25 9.29688 23.25 9.5625V21.375C23.25 21.8906 23.0664 22.332 22.6992 22.6992C22.332 23.0664 21.8906 23.25 21.375 23.25H2.625ZM18.875 5.15625H17.2813C17.0156 5.15625 16.793 5.06589 16.6133 4.88516C16.4336 4.70441 16.3438 4.48045 16.3438 4.21328C16.3438 3.94609 16.4336 3.72396 16.6133 3.54687C16.793 3.36979 17.0156 3.28125 17.2813 3.28125H18.875V1.6875C18.875 1.42187 18.9654 1.19922 19.1461 1.01953C19.3268 0.839844 19.5508 0.75 19.818 0.75C20.0852 0.75 20.3073 0.839844 20.4844 1.01953C20.6615 1.19922 20.75 1.42187 20.75 1.6875V3.28125H22.3437C22.6094 3.28125 22.832 3.37161 23.0117 3.55234C23.1914 3.73309 23.2812 3.95705 23.2812 4.22422C23.2812 4.49141 23.1914 4.71354 23.0117 4.89062C22.832 5.06771 22.6094 5.15625 22.3437 5.15625H20.75V6.75C20.75 7.01563 20.6596 7.23828 20.4789 7.41797C20.2982 7.59766 20.0742 7.6875 19.807 7.6875C19.5398 7.6875 19.3177 7.59766 19.1406 7.41797C18.9635 7.23828 18.875 7.01563 18.875 6.75V5.15625ZM11.0313 17.4062L8.46875 14.0312C8.36458 13.9062 8.23958 13.8438 8.09375 13.8438C7.94792 13.8438 7.82292 13.9062 7.71875 14.0312L5.09375 17.4375C4.96875 17.6042 4.95312 17.7708 5.04688 17.9375C5.14063 18.1042 5.28125 18.1875 5.46875 18.1875H18.5625C18.7396 18.1875 18.8724 18.1042 18.9609 17.9375C19.0495 17.7708 19.0417 17.6042 18.9375 17.4375L15.375 12.6875C15.2708 12.5625 15.1458 12.5 15 12.5C14.8542 12.5 14.7292 12.5625 14.625 12.6875L11.0313 17.4062Z" fill="black"/>
</svg>
