<svg width="48" height="48" viewBox="0 0 48 48" fill="none" xmlns="http://www.w3.org/2000/svg">
<mask id="mask0_755_4971" style="mask-type:alpha" maskUnits="userSpaceOnUse" x="0" y="0" width="48" height="48">
<rect width="48" height="48" fill="#D9D9D9"/>
</mask>
<g mask="url(#mask0_755_4971)">
<path d="M27.3717 44.2988H20.6282C20.2057 44.2988 19.8309 44.1662 19.5037 43.901C19.1766 43.6357 18.9797 43.2919 18.913 42.8694L18.1249 37.9031C17.5394 37.6937 16.9146 37.399 16.2505 37.0189C15.5864 36.6388 15.0076 36.248 14.5141 35.8466L9.94779 37.9727C9.53329 38.1633 9.11679 38.1903 8.69829 38.0537C8.27982 37.9171 7.95864 37.6415 7.73474 37.2271L4.35104 31.2216C4.11914 30.8405 4.05917 30.4406 4.17114 30.0222C4.28307 29.6037 4.50897 29.2618 4.84884 28.9966L9.07709 25.9064C9.01839 25.6303 8.98071 25.3125 8.96404 24.9531C8.94737 24.5937 8.93904 24.276 8.93904 23.9999C8.93904 23.7238 8.94737 23.406 8.96404 23.0466C8.98071 22.6872 9.01839 22.3694 9.07709 22.0934L4.84884 18.9912C4.50901 18.726 4.28311 18.3841 4.17114 17.9656C4.05917 17.5471 4.11914 17.1513 4.35104 16.7781L7.73474 10.7727C7.96661 10.3741 8.29177 10.1046 8.71024 9.96396C9.12874 9.8234 9.54126 9.8484 9.94779 10.039L14.538 12.1531C15.0235 11.7596 15.5963 11.3749 16.2564 10.9988C16.9166 10.6227 17.5394 10.3426 18.1249 10.1586L18.913 5.11837C18.9797 4.6959 19.1766 4.35205 19.5037 4.08682C19.8309 3.82158 20.2057 3.68896 20.6282 3.68896H27.3717C27.7942 3.68896 28.169 3.82158 28.4961 4.08682C28.8233 4.35205 29.0202 4.6959 29.0869 5.11837L29.8749 10.1086C30.4604 10.326 31.0916 10.6144 31.7684 10.9738C32.4452 11.3332 33.0177 11.7263 33.4858 12.1531L38.0521 10.039C38.4586 9.8484 38.8731 9.82142 39.2956 9.95802C39.7181 10.0946 40.0412 10.3662 40.2651 10.7727L43.6608 16.7281C43.8927 17.1093 43.959 17.5174 43.8597 17.9526C43.7605 18.3877 43.5242 18.7339 43.151 18.9912L38.9108 21.9934C38.9695 22.3028 39.0092 22.6372 39.0298 22.9966C39.0505 23.356 39.0608 23.6904 39.0608 23.9999C39.0608 24.3093 39.0505 24.6354 39.0298 24.9781C39.0092 25.3209 38.9695 25.647 38.9108 25.9564L43.151 28.9966C43.4909 29.2618 43.7168 29.6037 43.8287 30.0222C43.9407 30.4406 43.8847 30.8405 43.6608 31.2216L40.2532 37.2271C40.0293 37.6415 39.7101 37.9171 39.2956 38.0537C38.8811 38.1903 38.4666 38.1633 38.0521 37.9727L33.4738 35.8466C32.9804 36.248 32.4119 36.6451 31.7684 37.0379C31.1249 37.4307 30.4938 37.7191 29.8749 37.9031L29.0869 42.8694C29.0202 43.2919 28.8233 43.6357 28.4961 43.9009C28.169 44.1661 27.7942 44.2988 27.3717 44.2988ZM23.976 30.4999C25.776 30.4999 27.3094 29.8665 28.576 28.5999C29.8427 27.3332 30.476 25.7999 30.476 23.9999C30.476 22.1999 29.8427 20.6665 28.576 19.3999C27.3094 18.1332 25.776 17.4999 23.976 17.4999C22.176 17.4999 20.6427 18.1332 19.376 19.3999C18.1094 20.6665 17.476 22.1999 17.476 23.9999C17.476 25.7999 18.1094 27.3332 19.376 28.5999C20.6427 29.8665 22.176 30.4999 23.976 30.4999ZM23.976 27.4999C23.0014 27.4999 22.1744 27.1582 21.495 26.4749C20.8157 25.7915 20.476 24.9665 20.476 23.9999C20.476 23.0332 20.8157 22.2082 21.495 21.5249C22.1744 20.8415 23.0014 20.4999 23.976 20.4999C24.9427 20.4999 25.7677 20.8415 26.451 21.5249C27.1344 22.2082 27.476 23.0332 27.476 23.9999C27.476 24.9665 27.1344 25.7915 26.451 26.4749C25.7677 27.1582 24.9427 27.4999 23.976 27.4999ZM21.8956 40.8923H26.0923L26.8043 35.3042C27.9123 35.0376 28.9639 34.6209 29.9592 34.0542C30.9545 33.4876 31.8521 32.7923 32.6521 31.9684L37.9521 34.2684L39.8445 30.8238L35.1684 27.3977C35.3018 26.823 35.4121 26.2567 35.4994 25.6988C35.5867 25.1408 35.6304 24.5745 35.6304 23.9999C35.6304 23.4252 35.5951 22.8589 35.5244 22.301C35.4538 21.743 35.3351 21.1767 35.1684 20.602L39.8564 17.176L37.9521 13.7314L32.6641 16.0314C31.8974 15.1488 31.0228 14.4098 30.0401 13.8146C29.0575 13.2193 27.9789 12.8423 26.8043 12.6836L26.1043 7.10746H21.8956L21.2075 12.6836C20.0583 12.9089 18.984 13.3109 17.9847 13.8896C16.9854 14.4682 16.0985 15.1821 15.3238 16.0314L10.0478 13.7314L8.14344 17.176L12.8075 20.5901C12.6742 21.1647 12.5639 21.733 12.4766 22.295C12.3893 22.8569 12.3456 23.4252 12.3456 23.9999C12.3456 24.5745 12.3893 25.1448 12.4766 25.7107C12.5639 26.2767 12.6742 26.843 12.8075 27.4097L8.14344 30.8238L10.0478 34.2684L15.3238 31.9684C16.1318 32.7843 17.0354 33.4796 18.0347 34.0542C19.034 34.6289 20.0916 35.0495 21.2075 35.3162L21.8956 40.8923Z" fill="#1C1B1F"/>
</g>
</svg>